<svg xmlns="http://www.w3.org/2000/svg" viewBox="0 0 500 500"><defs><style>.cls-1{fill:#00a99d;}.cls-2{fill:#c1272d;}</style></defs><title>Doser</title><g id="Layer_2" data-name="Layer 2"><polygon class="cls-1" points="167.77 341.12 167.77 183.79 243 136.62 242.67 7.51 55.6 122.93 57.33 382.32 250 491.08 250 448.8 94.14 359.49 94.14 142.76 206.19 73.61 206.08 116.68 130.45 163.34 131.46 320.84 167.77 341.12"/><polygon class="cls-1" points="333.23 341.12 333.23 183.79 257.99 136.62 257.99 8.92 445.4 122.93 443.66 382.32 250 491.08 250 448.8 406.85 359.49 406.85 142.76 294.8 73.61 294.91 116.68 370.54 163.34 369.54 320.84 333.23 341.12"/><path class="cls-2" d="M278.53,222.67c23,0,36.78,22.91,27.63,41.29-8.44,17-56.05,55.2-56.05,55.2s-47.73-38.09-56.23-55c-9.21-18.35,4.53-41.33,27.49-41.37S250,241.09,250,241.09,255.57,222.71,278.53,222.67Z"/></g></svg>